<svg xmlns="http://www.w3.org/2000/svg" viewBox="0 0 1408.73 332"><title>logo-3</title><path d="M519.5,818.38q-20-12.62-20-38.62,0-13.75,4.75-21t14-7.25q6.75,0,11,3.5a11.14,11.14,0,0,1,4.25,9,45,45,0,0,1-.75,8.75,27.66,27.66,0,0,1-.37,3.5,35.41,35.41,0,0,0-.37,5.25q0,11.25,11.38,16.75t31.88,5.5q21.25,0,33.25-7.62t12-21.37a21.17,21.17,0,0,0-5.5-14.62,45.7,45.7,0,0,0-13.75-10.25Q593,745.75,578,739.75a259.76,259.76,0,0,1-31.37-14.25,65,65,0,0,1-20.75-18.37q-8.62-11.62-8.62-28.87a55.12,55.12,0,0,1,9.63-32q9.62-14,27.75-21.75t42.63-7.75a100.22,100.22,0,0,1,33.5,5.38Q646,627.5,655.13,638.5t9.13,27q0,15.75-4.75,23.75a15.31,15.31,0,0,1-14,8,15.5,15.5,0,0,1-10.87-4,12.45,12.45,0,0,1-4.37-9.5A47.59,47.59,0,0,1,631,675q.75-7.5.75-9.5,0-10.5-10.25-16T596,644q-21.5,0-32.87,7.88T551.75,674a23.9,23.9,0,0,0,5.88,16.25,48.49,48.49,0,0,0,14.63,11.25q8.75,4.5,24.5,10.75a316.66,316.66,0,0,1,30.5,14,60.86,60.86,0,0,1,19.63,17Q655,754,655,769.75q0,29.5-22.37,45.38T572.75,831Q539.5,831,519.5,818.38Z" transform="translate(-499.5 -610.75)" style="fill:#f66"/><path d="M864,752.75a6.94,6.94,0,0,1,5.75,2.5,10.52,10.52,0,0,1,2,6.75q0,7.75-3,12.13a17,17,0,0,1-9,6.38,78.56,78.56,0,0,1-24.5,3.75,70.17,70.17,0,0,1-20.75-3q-7.25,11.75-16,24.25-10,14.25-17.12,19.5a26.5,26.5,0,0,1-16.12,5.25q-10,0-15.12-7.75T743.75,797l-1.25-18.25q-7.75,21-13.87,32T716.38,826A24.57,24.57,0,0,1,702,830.25a18.91,18.91,0,0,1-16.12-8q-5.88-8-7.37-25.25-3-35-3-61.25V727q.25-8.25,4.5-11.5t12.75-3.25q6.5,0,9.63,2.88t3.13,9.63q0,28.75,3.5,74.75,17-35.75,31.25-74.5,2.75-7.5,6.63-10.12a16.31,16.31,0,0,1,9.38-2.62q6.75,0,9.38,2.75t2.63,9.75q0,28.75,3.5,74.75,15-22.25,22.5-35.5a37.1,37.1,0,0,1-3.75-17.25,38.48,38.48,0,0,1,3.75-16.5,34.61,34.61,0,0,1,10.25-13,23.56,23.56,0,0,1,14.75-5A14.9,14.9,0,0,1,831,717.38q4.5,5.13,4.5,14.88,0,11.25-6,25.75a177.67,177.67,0,0,0,25.25-3.75L861.5,753A8.86,8.86,0,0,1,864,752.75Z" transform="translate(-499.5 -610.75)" style="fill:#f66"/><path d="M966.63,776.25q1.88,3,1.88,8.25,0,10-4.75,15.5-9.25,11.25-26.12,20.75a72.45,72.45,0,0,1-36.12,9.5q-26.25,0-40.75-14.25t-14.5-39a72.31,72.31,0,0,1,7.25-32.12,59.37,59.37,0,0,1,20.13-23.62,50.61,50.61,0,0,1,29.13-8.75q14.5,0,23.25,8.63t8.75,23.38a40.42,40.42,0,0,1-12.37,29.63Q910,786.5,880.5,793.75q6.25,11.5,23.75,11.5,11.25,0,25.63-7.87a84.65,84.65,0,0,0,24.88-20.62q3-3.5,6.75-3.5A5.78,5.78,0,0,1,966.63,776.25Zm-83.75-28.5q-6.37,10.75-6.37,26v.5q14.75-3.5,23.25-10.5t8.5-16.25a10.88,10.88,0,0,0-2.62-7.62A9.18,9.18,0,0,0,898.5,737Q889.25,737,882.88,747.75Z" transform="translate(-499.5 -610.75)" style="fill:#f66"/><path d="M1064.87,776.25q1.88,3,1.88,8.25,0,10-4.75,15.5-9.25,11.25-26.12,20.75a72.45,72.45,0,0,1-36.13,9.5Q973.5,830.25,959,816t-14.5-39a72.31,72.31,0,0,1,7.25-32.12,59.37,59.37,0,0,1,20.13-23.62A50.61,50.61,0,0,1,1001,712.5q14.5,0,23.25,8.63T1033,744.5a40.42,40.42,0,0,1-12.37,29.63q-12.37,12.38-41.88,19.63,6.25,11.5,23.75,11.5,11.25,0,25.62-7.87A84.65,84.65,0,0,0,1053,776.75q3-3.5,6.75-3.5A5.78,5.78,0,0,1,1064.87,776.25Zm-83.75-28.5q-6.37,10.75-6.37,26v.5q14.75-3.5,23.25-10.5t8.5-16.25a10.88,10.88,0,0,0-2.62-7.62,9.18,9.18,0,0,0-7.13-2.87Q987.5,737,981.12,747.75Z" transform="translate(-499.5 -610.75)" style="fill:#f66"/><path d="M1163.12,776.25q1.88,3,1.88,8.25,0,10-4.75,15.5a106.25,106.25,0,0,1-23.5,21.75,51.5,51.5,0,0,1-29.25,8.5q-51,0-51-71.75,0-11,.75-22.25h-9.75q-7.5,0-10.12-2.75t-2.62-8.75q0-14,11.25-14h14.25a243.09,243.09,0,0,1,13-50.25q8.75-22.75,21.13-36.25t26.63-13.5q10.5,0,16.5,9.25t6,23.25q0,38.75-32.5,67.5h28q4,0,5.75,1.75t1.75,6.5q0,17.25-28.25,17.25h-30.5q-.5,12.5-.5,19.5,0,26,6.13,36.5t19.38,10.5a29.83,29.83,0,0,0,19-6.5q8.25-6.5,19.5-19.5,3-3.5,6.75-3.5A5.78,5.78,0,0,1,1163.12,776.25Zm-57.25-132.12q-4.63,9.38-8.75,26a348.31,348.31,0,0,0-6.87,36.88,85.4,85.4,0,0,0,22.13-28.62q7.37-15.87,7.38-28.87,0-14.75-5.5-14.75Q1110.5,634.75,1105.87,644.13Z" transform="translate(-499.5 -610.75)" style="fill:#f66"/><path d="M1401,705.63q-15,15.38-43.75,22.13,15.5,4.25,23.5,13.88a33.63,33.63,0,0,1,8,22.13q0,19.75-12.37,34.25t-36.12,22.38q-23.75,7.88-57.25,7.88-12.5,0-20-.75a12.05,12.05,0,0,1-6,10.5q-5.75,3.5-14.75,3.5t-12.37-4q-3.37-4-2.87-11.75a714,714,0,0,1,8.75-73.37,723.31,723.31,0,0,1,16.5-74.12,13,13,0,0,1,7-8.75q5.25-2.5,13.75-2.5,15.25,0,15.25,8.5a25.67,25.67,0,0,1-1.5,8q-6.5,19.5-13,52.88a632.62,632.62,0,0,0-9.25,63.63q12,1,19.5,1,35,0,51.38-10.12T1351.74,765q0-11-9.37-18.5T1311,738.25q-5-.25-7-2.5t-2-7.25q0-7.25,3-11.75t11-4.75a112.14,112.14,0,0,0,32.13-5.25q14.37-4.75,22.63-13.37a28.2,28.2,0,0,0,8.25-20.12q0-14.5-14.25-22.87T1321,642a194.3,194.3,0,0,0-51.75,6.88q-25,6.88-42.5,17.38-8,4.75-13.5,4.75a8.1,8.1,0,0,1-6.87-3.12A12.62,12.62,0,0,1,1204,660a21,21,0,0,1,2.63-10.75q2.63-4.5,12.63-10.25,21-12,49.25-18.75a247.62,247.62,0,0,1,57.75-6.75q45.25,0,67.5,15.25T1416,669A50.63,50.63,0,0,1,1401,705.63Z" transform="translate(-499.5 -610.75)" style="fill:#f66"/><path d="M1413.74,819q-9.25-11.25-9.25-29.5a81.27,81.27,0,0,1,9.25-37.87,79,79,0,0,1,24.63-28.75Q1453.74,712,1471,712q5.5,0,7.38,2.13t3.13,7.63a58.9,58.9,0,0,1,11-1q12.25,0,12.25,8.75,0,5.25-3.75,25-5.75,28.75-5.75,40a9.07,9.07,0,0,0,1.88,6,6,6,0,0,0,4.88,2.25q4.75,0,11.5-6.12t18.25-19.87q3-3.5,6.75-3.5a5.78,5.78,0,0,1,5.13,3q1.88,3,1.88,8.25,0,10-4.75,15.5A126.08,126.08,0,0,1,1519,821.5q-11.5,8.75-22.25,8.75a23.35,23.35,0,0,1-15.12-5.62,34.25,34.25,0,0,1-10.37-15.37q-13,21-32.75,21Q1423,830.25,1413.74,819ZM1458,798.5q5-6.5,7.25-17.25l9.25-46q-10.5.25-19.37,7.88A53.07,53.07,0,0,0,1441,763.25a67.75,67.75,0,0,0-5.25,26.5q0,7.75,3.13,11.5a10.62,10.62,0,0,0,8.63,3.75Q1453,805,1458,798.5Z" transform="translate(-499.5 -610.75)" style="fill:#f66"/><path d="M1529.62,820.25q-3.88-10-3.87-32A203.57,203.57,0,0,1,1535,726.5q2.25-7.25,7.38-10.62t14.38-3.37q5,0,7,1.25t2,4.75q0,4-3.75,18-2.5,10-4,17.5a178.68,178.68,0,0,0-2.5,18.5q8.25-21.5,18.5-35t20.13-19.25q9.87-5.75,18.13-5.75,16.25,0,16.25,16.25,0,9.75-5.5,35.25-4.75,21.75-4.75,28.75,0,10,7.25,10,5,0,11.88-6.12t18.38-19.87q3-3.5,6.75-3.5a5.78,5.78,0,0,1,5.13,3q1.88,3,1.88,8.25,0,10-4.75,15.5a110.54,110.54,0,0,1-23.12,21.75,48.49,48.49,0,0,1-28.12,8.5q-12.75,0-19.25-7.37t-6.5-21.37q0-7,3.5-25,3.25-15.75,3.25-21.75,0-4-2.75-4-3.25,0-9.12,8.38a134.27,134.27,0,0,0-12,22.13,172,172,0,0,0-9.87,29q-2.75,11.75-6.37,15.88T1543,830.25Q1533.49,830.25,1529.62,820.25Z" transform="translate(-499.5 -610.75)" style="fill:#f66"/><path d="M1653.61,820.25q-3.88-10-3.87-32A203.57,203.57,0,0,1,1659,726.5q2.25-7.25,7.38-10.62t14.38-3.37q5,0,7,1.25t2,4.75q0,4-3.75,18-2.5,10-4,17.5a178.68,178.68,0,0,0-2.5,18.5q8.25-21.5,18.5-35t20.13-19.25q9.87-5.75,18.13-5.75,16.25,0,16.25,16.25,0,9.75-5.5,35.25-4.75,21.75-4.75,28.75,0,10,7.25,10,5,0,11.88-6.12t18.38-19.87q3-3.5,6.75-3.5a5.78,5.78,0,0,1,5.13,3q1.88,3,1.88,8.25,0,10-4.75,15.5a110.54,110.54,0,0,1-23.12,21.75,48.49,48.49,0,0,1-28.12,8.5q-12.75,0-19.25-7.37t-6.5-21.37q0-7,3.5-25,3.25-15.75,3.25-21.75,0-4-2.75-4-3.25,0-9.12,8.38a134.27,134.27,0,0,0-12,22.13,172,172,0,0,0-9.87,29q-2.75,11.75-6.37,15.88T1667,830.25Q1657.48,830.25,1653.61,820.25Z" transform="translate(-499.5 -610.75)" style="fill:#f66"/><path d="M1906.36,776.88a15.11,15.11,0,0,1,1.88,7.88q0,5.75-1.75,9a16.3,16.3,0,0,1-5.5,5.75l-48,32.25q-9.5,51.75-24.87,81.38T1789,942.75q-12.75,0-20.75-7.87t-8-20.62a59.4,59.4,0,0,1,5.38-24q5.37-12.25,20-28.12T1827,825.75l.75-5.75q1.75-9.25,4-26.5-5,18-14,27.38t-19,9.38q-11.25,0-18.37-10.37T1773.23,794a218.16,218.16,0,0,1,2.5-34.37A215.29,215.29,0,0,1,1784,726.5q2.5-7.5,7-10.75t14.25-3.25q5.5,0,7.63,1.75a6.42,6.42,0,0,1,2.13,5.25q0,2-2.75,13.5-2.5,9.25-4,16.75-2,10.25-3.5,19.63a101.24,101.24,0,0,0-1.5,15.38q0,9.5,5.25,9.5,3.75,0,9.38-7.5t12-22.75a303.73,303.73,0,0,0,12.38-37.5q2-7.5,6.13-10.75t12.38-3.25q5.75,0,8,1.5t2.25,5q0,6.25-6.5,43l-6.5,40.25q19.25-14.5,37.5-26.5a11.35,11.35,0,0,1,5.75-2A5.75,5.75,0,0,1,1906.36,776.88ZM1805.73,904q7.75-14.5,15.5-48.25Q1802,872,1793.36,885.38t-8.62,23.38a13.58,13.58,0,0,0,1.63,7,5.75,5.75,0,0,0,5.38,2.75Q1798,918.5,1805.73,904Z" transform="translate(-499.5 -610.75)" style="fill:#f66"/></svg>