<svg xmlns="http://www.w3.org/2000/svg" viewBox="0 0 458.39 450.07"><title>download-file</title><g style="opacity:0.41000000000000003"><path d="M28.81,302.94a136.91,136.91,0,0,1-.54-22.86c2.17-35.78,18.37-70.28,43.49-95.34,9-8.94,19.27-17.07,24.82-28.54,9.35-19.32,7.49-40.85,19.33-60.06A108.86,108.86,0,0,1,166.31,52.9c61.52-25.48,151,5.95,147,83.41,0,.28,0,.68,0,1.19a27.76,27.76,0,0,0,28.4,28.41c57.86-1.66,109.87,41.19,123.4,98.24,8.7,36.69-.48,77.9-25.72,105.53-18.84,20.62-44.89,32.78-71.13,41.58-52.6,17.64-108.58,23.72-163.86,21-51.75-2.57-106.81-14.8-142.13-53.48C43.38,358.13,31.82,331,28.81,302.94Z" transform="translate(-22.59 -17.39)" style="fill:#e1e2fe"/></g><g style="opacity:0.31"><path d="M293.21,48.33a13,13,0,1,0,12.34-14A13.11,13.11,0,0,0,293.21,48.33Z" transform="translate(-22.59 -17.39)" style="fill:#e1e2fe"/></g><g style="opacity:0.31"><path d="M85.62,48A6.72,6.72,0,1,0,92,40.79,6.76,6.76,0,0,0,85.62,48Z" transform="translate(-22.59 -17.39)" style="fill:#e1e2fe"/></g><g style="opacity:0.31"><path d="M472.09,203a4.45,4.45,0,1,0,4.21-4.77A4.48,4.48,0,0,0,472.09,203Z" transform="translate(-22.59 -17.39)" style="fill:#e1e2fe"/></g><g style="opacity:0.31"><path d="M410.4,432.51a20.5,20.5,0,1,0,19.42-22A20.64,20.64,0,0,0,410.4,432.51Z" transform="translate(-22.59 -17.39)" style="fill:#e1e2fe"/></g><path d="M25.72,98a23.94,23.94,0,0,1,8.43-32.33c11.07-6.56,32.93-7.28,39.35,4S62.91,91.88,56.32,103.08C47.13,118.7,32.14,109.31,25.72,98Z" transform="translate(-22.59 -17.39)" style="fill:#ecf1f7;opacity:0.47000000000000003"/><path d="M93.26,452.05A17.51,17.51,0,0,1,68.48,448c-5.73-8.11-7.91-25.08,0-30.94s17.36,6.54,26.22,10.82C107.1,433.81,101.21,446.2,93.26,452.05Z" transform="translate(-22.59 -17.39)" style="fill:#e1e2fe;opacity:0.47000000000000003"/><path d="M408.43,24.33a22.06,22.06,0,0,1,31.65-.48c8.86,8.79,15.22,29.36,6.6,38.42s-23-4.23-34.89-7.55C395.17,50.09,399.81,33.39,408.43,24.33Z" transform="translate(-22.59 -17.39)" style="fill:#e1e2fe;opacity:0.47000000000000003"/><path d="M45,148.18c-5.82,16.76-7.41,35.07-3.64,52.39,5.06,23.29,22.51,43.77,19.54,68.61-1.78,14.91-1.47,28.57-1.83,43.22-.74,30.07,20.28,55,44.93,67.43,20,10.12,42.79,12.79,64.76,10.86,19.78-1.74,39.25-6.93,58.05-13.37,18.12-6.2,35.7-13.91,55.24-13.33,16.25.48,31.31,6.52,46.73,10.71,36.81,10,80.36,8.59,111.65-13.11,34.3-23.78,48.15-68.91,36.16-108.35-6.43-21.15-15-39.49-11.91-62,1.53-11.09,3.81-22.37,1.7-33.36-1.94-10.12-7.48-19.22-14.06-27.14-17.74-21.37-43-35-69.23-43-29.78-9.09-62.83-14.05-93.79-9.34-60.14,9.15-73.23.25-136.1-8.68-42.12-6-81.65,27.51-100.85,62.05A104.37,104.37,0,0,0,45,148.18Z" transform="translate(-22.59 -17.39)" style="fill:#e1e2fe;opacity:0.32"/><g style="opacity:0.8300000000000001"><path d="M74.13,196.57c8.66-11.43,22.05-19.19,28.61-32.33,7.85-15.72,6.2-34.28,13.22-50.35,10.37-23.74,29.14-43.9,52.65-55,11.33-5.34,23.77-8.58,35.9-7.65,18.7,1.43,34.83,12.57,47.44,25.86,18.77,19.79,32,47.89,54.58,63.74,12.43,8.75,27-.53,40.22-3.48a91.13,91.13,0,0,1,44.61,1.5c26.21,7.46,48.78,26.24,60.07,51,12.05,26.43,10.34,63-12.28,85.7-10.46,10.51-24.66,17.54-32.42,30.13-9.75,15.8-10.89,37.16-13.61,54.73a116.12,116.12,0,0,1-23.76,54l-.43.53a76.56,76.56,0,0,1-89.78,22.5l-66.3-28.72C145.57,379.63,94.51,332.66,70,264.6c-5.31-14.73-7.23-46.13-.47-60.5A42.12,42.12,0,0,1,74.13,196.57Z" transform="translate(-22.59 -17.39)" style="fill:#e1e2fe;opacity:0.81"/></g><circle cx="361.47" cy="415.48" r="4.5" style="fill:#3e479b;opacity:0.58"/><circle cx="247.59" cy="20.22" r="2.25" style="fill:#3e479b;opacity:0.58"/><circle cx="108.72" cy="426.28" r="4.5" style="fill:#3e479b;opacity:0.58"/><circle cx="379.8" cy="446.57" r="3.5" style="fill:#ef929c;opacity:0.58"/><circle cx="35.46" cy="23.39" r="1.5" style="fill:#3e479b;opacity:0.58"/><circle cx="464.22" cy="80.72" r="5.4" transform="translate(265.73 500.45) rotate(-77.94)" style="fill:#ef929c;opacity:0.58"/><circle cx="73.07" cy="26.36" r="2.12" transform="translate(9.44 74.92) rotate(-77.95)" style="fill:#ef929c;opacity:0.58"/><circle cx="287.7" cy="19.51" r="2.12" transform="translate(185.94 279.4) rotate(-77.95)" style="fill:#ef929c;opacity:0.58"/><circle cx="436.88" cy="86.13" r="1.8" transform="translate(238.82 477.99) rotate(-77.94)" style="fill:#3e479b;opacity:0.58"/><circle cx="39.34" cy="396.53" r="1.8" transform="translate(-379.26 334.79) rotate(-77.94)" style="fill:#3e479b;opacity:0.58"/><g style="opacity:0.66"><path d="M371.12,208.38h-7.81a6,6,0,0,1-5.94-5.94v-8.78a4,4,0,0,0-2.59-3.7c-.92-.34-1.84-.72-2.73-1.13a4,4,0,0,0-4.49.77l-6.21,6.21a5.94,5.94,0,0,1-8.41,0l-5.52-5.52a6,6,0,0,1,0-8.4l6.21-6.21a4,4,0,0,0,.77-4.49c-.41-.9-.8-1.81-1.13-2.73a4,4,0,0,0-3.7-2.59H320.8a6,6,0,0,1-5.94-5.94v-7.81a6,6,0,0,1,5.94-5.94h8.78a4,4,0,0,0,3.7-2.59c.34-.92.72-1.84,1.13-2.73a4,4,0,0,0-.77-4.49l-6.21-6.21a6,6,0,0,1,0-8.4l5.52-5.52a6,6,0,0,1,8.41,0l6.21,6.21a4,4,0,0,0,4.49.77c.9-.42,1.82-.79,2.73-1.13a4,4,0,0,0,2.59-3.7v-8.78a6,6,0,0,1,5.94-5.94h7.81a6,6,0,0,1,5.94,5.94v8.78a4,4,0,0,0,2.59,3.7c.91.34,1.83.72,2.73,1.13a4,4,0,0,0,4.49-.77l6.21-6.21a6,6,0,0,1,8.41,0l5.52,5.52a6,6,0,0,1,0,8.4l-6.21,6.21a4,4,0,0,0-.77,4.49c.41.89.79,1.81,1.13,2.73a4,4,0,0,0,3.7,2.59h8.78a6,6,0,0,1,5.94,5.94v7.81a6,6,0,0,1-5.94,5.94h-8.78a4,4,0,0,0-3.7,2.59c-.33.92-.72,1.83-1.13,2.73a4,4,0,0,0,.77,4.49l6.21,6.21a6,6,0,0,1,0,8.4l-5.52,5.52a5.94,5.94,0,0,1-8.41,0l-6.21-6.21a4,4,0,0,0-4.49-.77c-.89.41-1.81.79-2.73,1.13a4,4,0,0,0-2.59,3.7v8.78A6,6,0,0,1,371.12,208.38Zm-20.76-21.93a6,6,0,0,1,2.54.56c.84.39,1.71.75,2.58,1.07a6,6,0,0,1,3.9,5.58v8.78a4,4,0,0,0,3.94,3.94h7.81a4,4,0,0,0,3.94-3.94v-8.78a6,6,0,0,1,3.9-5.58c.87-.32,1.74-.68,2.58-1.07a6,6,0,0,1,6.75,1.17l6.21,6.21a4,4,0,0,0,5.58,0l5.52-5.52a4,4,0,0,0,0-5.58l-6.21-6.21a6,6,0,0,1-1.17-6.75c.39-.85.75-1.71,1.07-2.58a6,6,0,0,1,5.58-3.9h8.78a4,4,0,0,0,3.94-3.94v-7.81a4,4,0,0,0-3.94-3.94h-8.78a6,6,0,0,1-5.58-3.9c-.32-.87-.68-1.73-1.07-2.58a6,6,0,0,1,1.17-6.74l6.21-6.21a4,4,0,0,0,0-5.58l-5.52-5.52a4,4,0,0,0-5.58,0l-6.21,6.21a6,6,0,0,1-6.75,1.17c-.85-.39-1.71-.75-2.58-1.07a6,6,0,0,1-3.9-5.58v-8.78a4,4,0,0,0-3.94-3.94h-7.81a4,4,0,0,0-3.94,3.94v8.78a6,6,0,0,1-3.9,5.58c-.86.32-1.73.68-2.58,1.07a6,6,0,0,1-6.74-1.17l-6.21-6.21a4,4,0,0,0-5.58,0l-5.52,5.52a4,4,0,0,0,0,5.58l6.21,6.21a6,6,0,0,1,1.17,6.74c-.39.84-.75,1.71-1.07,2.58a6,6,0,0,1-5.58,3.9H320.8a4,4,0,0,0-3.94,3.94v7.81a4,4,0,0,0,3.94,3.94h8.78a6,6,0,0,1,5.58,3.9c.32.86.68,1.73,1.07,2.58a6,6,0,0,1-1.17,6.74l-6.21,6.21a4,4,0,0,0,0,5.58l5.52,5.52a4,4,0,0,0,5.58,0l6.21-6.21A6,6,0,0,1,350.36,186.45Zm16.86-3A27.45,27.45,0,1,1,394.67,156,27.48,27.48,0,0,1,367.22,183.47Zm0-52.9A25.45,25.45,0,1,0,392.67,156,25.48,25.48,0,0,0,367.22,130.57Z" transform="translate(-22.59 -17.39)" style="fill:#fff"/><g style="opacity:0.84"><path d="M356.59,351.07h-9.74a5.48,5.48,0,0,1-5.15-3.6q-.55-1.5-1.22-2.94a5.51,5.51,0,0,1,1.07-6.23l6.89-6.89a5.48,5.48,0,0,0,0-7.75l-6.12-6.12a5.48,5.48,0,0,0-7.75,0l-6.89,6.89a5.51,5.51,0,0,1-6.23,1.07q-1.44-.67-2.94-1.22a5.48,5.48,0,0,1-3.6-5.15V309.4a5.48,5.48,0,0,0-5.48-5.48h-8.66a5.48,5.48,0,0,0-5.48,5.48v9.74a5.48,5.48,0,0,1-3.6,5.15q-1.5.55-2.94,1.22a5.51,5.51,0,0,1-6.23-1.07l-6.89-6.89a5.48,5.48,0,0,0-7.75,0l-6.12,6.12a5.48,5.48,0,0,0,0,7.75l6.89,6.89a5.51,5.51,0,0,1,1.07,6.23q-.67,1.44-1.22,2.94a5.48,5.48,0,0,1-5.15,3.6h-9.74a5.48,5.48,0,0,0-5.48,5.48v8.66a5.48,5.48,0,0,0,5.48,5.48h9.74a5.48,5.48,0,0,1,5.15,3.6q.55,1.5,1.22,2.94a5.51,5.51,0,0,1-1.07,6.23l-6.89,6.89a5.48,5.48,0,0,0,0,7.75l6.12,6.12a5.48,5.48,0,0,0,7.75,0l6.89-6.89a5.51,5.51,0,0,1,6.23-1.07q1.44.67,2.94,1.22a5.48,5.48,0,0,1,3.6,5.15v9.74a5.48,5.48,0,0,0,5.48,5.48h8.66a5.48,5.48,0,0,0,5.48-5.48v-9.74a5.48,5.48,0,0,1,3.6-5.15q1.5-.55,2.94-1.22a5.51,5.51,0,0,1,6.23,1.07l6.89,6.89a5.48,5.48,0,0,0,7.75,0l6.12-6.12a5.48,5.48,0,0,0,0-7.75l-6.89-6.89a5.51,5.51,0,0,1-1.07-6.23q.67-1.44,1.22-2.94a5.48,5.48,0,0,1,5.15-3.6h9.74a5.48,5.48,0,0,0,5.48-5.48v-8.66A5.48,5.48,0,0,0,356.59,351.07Zm-51.48,39.14a29.33,29.33,0,1,1,29.33-29.33A29.33,29.33,0,0,1,305.11,390.22Z" transform="translate(-22.59 -17.39)" style="fill:#fff"/></g><path d="M204.29,409.4h-6.56a5.16,5.16,0,0,1-5.15-5.15v-7.38a3.17,3.17,0,0,0-2.07-3c-.77-.28-1.55-.6-2.3-1a3.2,3.2,0,0,0-3.59.61l-5.22,5.22a5.15,5.15,0,0,1-7.29,0l-4.64-4.64a5.15,5.15,0,0,1,0-7.29l5.22-5.22a3.19,3.19,0,0,0,.61-3.59c-.35-.75-.67-1.53-1-2.3a3.17,3.17,0,0,0-3-2.07H162a5.16,5.16,0,0,1-5.15-5.15V362a5.16,5.16,0,0,1,5.15-5.15h7.38a3.16,3.16,0,0,0,3-2.07c.29-.78.61-1.56,1-2.3a3.19,3.19,0,0,0-.61-3.59l-5.22-5.22a5.15,5.15,0,0,1,0-7.29l4.64-4.64a5.16,5.16,0,0,1,7.29,0l5.22,5.22a3.19,3.19,0,0,0,3.59.61c.75-.35,1.52-.67,2.3-1a3.17,3.17,0,0,0,2.07-3v-7.38a5.16,5.16,0,0,1,5.15-5.15h6.56a5.16,5.16,0,0,1,5.15,5.15v7.38a3.17,3.17,0,0,0,2.07,3c.78.29,1.56.61,2.3,1a3.19,3.19,0,0,0,3.59-.61l5.22-5.22a5.16,5.16,0,0,1,7.29,0l4.64,4.64a5.15,5.15,0,0,1,0,7.29l-5.22,5.22a3.19,3.19,0,0,0-.61,3.59c.35.75.67,1.52,1,2.3a3.17,3.17,0,0,0,3,2.07H240a5.16,5.16,0,0,1,5.15,5.15v6.56a5.16,5.16,0,0,1-5.15,5.15h-7.38a3.17,3.17,0,0,0-3,2.07c-.29.78-.61,1.55-1,2.3a3.19,3.19,0,0,0,.61,3.59l5.22,5.22a5.15,5.15,0,0,1,0,7.29l-4.64,4.64a5.15,5.15,0,0,1-7.29,0l-5.22-5.22a3.2,3.2,0,0,0-3.59-.61c-.76.35-1.53.67-2.31,1a3.17,3.17,0,0,0-2.07,3v7.38A5.16,5.16,0,0,1,204.29,409.4Zm-17.44-18.74a5.23,5.23,0,0,1,2.2.48c.71.33,1.43.63,2.15.89a5.18,5.18,0,0,1,3.38,4.84v7.38a3.16,3.16,0,0,0,3.15,3.15h6.56a3.16,3.16,0,0,0,3.15-3.15v-7.38a5.17,5.17,0,0,1,3.38-4.84c.72-.26,1.44-.56,2.15-.89a5.2,5.2,0,0,1,5.85,1l5.22,5.22a3.23,3.23,0,0,0,4.46,0l4.64-4.64a3.15,3.15,0,0,0,0-4.46l-5.22-5.22a5.2,5.2,0,0,1-1-5.85c.33-.7.63-1.43.89-2.15a5.17,5.17,0,0,1,4.84-3.38H240a3.16,3.16,0,0,0,3.15-3.15V362a3.16,3.16,0,0,0-3.15-3.15h-7.38a5.17,5.17,0,0,1-4.84-3.38c-.27-.73-.57-1.46-.89-2.15a5.2,5.2,0,0,1,1-5.85l5.22-5.22a3.15,3.15,0,0,0,0-4.46l-4.64-4.64a3.16,3.16,0,0,0-4.46,0l-5.22,5.22a5.2,5.2,0,0,1-5.85,1c-.7-.32-1.42-.62-2.15-.89a5.17,5.17,0,0,1-3.38-4.84v-7.38a3.16,3.16,0,0,0-3.15-3.15h-6.56a3.16,3.16,0,0,0-3.15,3.15v7.38a5.17,5.17,0,0,1-3.38,4.84c-.73.27-1.46.57-2.15.89a5.2,5.2,0,0,1-5.85-1L178,333.12a3.16,3.16,0,0,0-4.46,0l-4.64,4.64a3.15,3.15,0,0,0,0,4.46l5.22,5.22a5.2,5.2,0,0,1,1,5.85c-.32.7-.62,1.42-.89,2.15a5.17,5.17,0,0,1-4.84,3.38H162a3.16,3.16,0,0,0-3.15,3.15v6.56a3.16,3.16,0,0,0,3.15,3.15h7.38a5.17,5.17,0,0,1,4.84,3.38c.27.73.57,1.45.89,2.15a5.2,5.2,0,0,1-1,5.85l-5.22,5.22a3.15,3.15,0,0,0,0,4.46l4.64,4.64a3.23,3.23,0,0,0,4.46,0l5.22-5.22A5.16,5.16,0,0,1,186.85,390.65ZM201,388.46a23.22,23.22,0,1,1,23.22-23.22A23.25,23.25,0,0,1,201,388.46ZM201,344a21.22,21.22,0,1,0,21.22,21.22A21.24,21.24,0,0,0,201,344Z" transform="translate(-22.59 -17.39)" style="fill:#fff"/></g><g style="opacity:0.81"><path d="M416.43,300.92h-13a1,1,0,0,1,0-2h13a1,1,0,0,1,0,2Z" transform="translate(-22.59 -17.39)" style="fill:#fff"/><path d="M416.43,322.4h-13a1,1,0,0,1,0-2h13a1,1,0,0,1,0,2Z" transform="translate(-22.59 -17.39)" style="fill:#fff"/><path d="M425.65,344.1H346.38a2.72,2.72,0,0,1-2.71-2.71V275.12a2.71,2.71,0,0,1,2.71-2.71h79.26a2.71,2.71,0,0,1,2.71,2.71v66.27A2.72,2.72,0,0,1,425.65,344.1Zm-79.26-69.69a.71.71,0,0,0-.71.71v66.27a.71.71,0,0,0,.71.71h79.26a.71.71,0,0,0,.71-.71V275.12a.71.71,0,0,0-.71-.71Z" transform="translate(-22.59 -17.39)" style="fill:#fff"/><path d="M425.65,344.1H346.38a2.72,2.72,0,0,1-2.71-2.71V275.12a2.71,2.71,0,0,1,2.71-2.71h79.26a2.71,2.71,0,0,1,2.71,2.71v66.27A2.72,2.72,0,0,1,425.65,344.1Zm-79.26-69.69a.71.71,0,0,0-.71.71v66.27a.71.71,0,0,0,.71.71h79.26a.71.71,0,0,0,.71-.71V275.12a.71.71,0,0,0-.71-.71Z" transform="translate(-22.59 -17.39)" style="fill:#fff;opacity:0.66"/><path d="M416.43,290.5H354.31a1,1,0,0,1,0-2h62.12a1,1,0,0,1,0,2Z" transform="translate(-22.59 -17.39)" style="fill:#fff"/><path d="M416.43,311.35H354.31a1,1,0,0,1,0-2h62.12a1,1,0,0,1,0,2Z" transform="translate(-22.59 -17.39)" style="fill:#fff"/><path d="M387.8,300.92H354.31a1,1,0,0,1,0-2H387.8a1,1,0,0,1,0,2Z" transform="translate(-22.59 -17.39)" style="fill:#fff"/><path d="M387.8,322.4H354.31a1,1,0,0,1,0-2H387.8a1,1,0,0,1,0,2Z" transform="translate(-22.59 -17.39)" style="fill:#fff"/><path d="M376.9,332.36H354.31a1,1,0,1,1,0-2H376.9a1,1,0,0,1,0,2Z" transform="translate(-22.59 -17.39)" style="fill:#fff"/></g><g style="opacity:0.81"><path d="M162.8,191.56H148a1,1,0,0,1,0-2H162.8a1,1,0,0,1,0,2Z" transform="translate(-22.59 -17.39)" style="fill:#fff"/><path d="M162.8,215.93H148a1,1,0,0,1,0-2H162.8a1,1,0,0,1,0,2Z" transform="translate(-22.59 -17.39)" style="fill:#fff"/><path d="M173.48,240.55H83.1a2.71,2.71,0,0,1-2.71-2.71V162.19a2.71,2.71,0,0,1,2.71-2.71h90.39a2.71,2.71,0,0,1,2.71,2.71v75.65A2.71,2.71,0,0,1,173.48,240.55ZM83.1,161.48a.71.71,0,0,0-.71.71v75.65a.71.71,0,0,0,.71.71h90.39a.71.71,0,0,0,.71-.71V162.19a.71.71,0,0,0-.71-.71Z" transform="translate(-22.59 -17.39)" style="fill:#fff"/><path d="M173.48,240.55H83.1a2.71,2.71,0,0,1-2.71-2.71V162.19a2.71,2.71,0,0,1,2.71-2.71h90.39a2.71,2.71,0,0,1,2.71,2.71v75.65A2.71,2.71,0,0,1,173.48,240.55ZM83.1,161.48a.71.71,0,0,0-.71.71v75.65a.71.71,0,0,0,.71.71h90.39a.71.71,0,0,0,.71-.71V162.19a.71.71,0,0,0-.71-.71Z" transform="translate(-22.59 -17.39)" style="fill:#fff;opacity:0.66"/><path d="M162.8,179.73H92.32a1,1,0,0,1,0-2H162.8a1,1,0,0,1,0,2Z" transform="translate(-22.59 -17.39)" style="fill:#fff"/><path d="M162.8,203.39H92.32a1,1,0,0,1,0-2H162.8a1,1,0,0,1,0,2Z" transform="translate(-22.59 -17.39)" style="fill:#fff"/><path d="M130.32,191.56h-38a1,1,0,0,1,0-2h38a1,1,0,0,1,0,2Z" transform="translate(-22.59 -17.39)" style="fill:#fff"/><path d="M130.32,215.93h-38a1,1,0,0,1,0-2h38a1,1,0,0,1,0,2Z" transform="translate(-22.59 -17.39)" style="fill:#fff"/><path d="M117.94,227.22H92.32a1,1,0,0,1,0-2h25.63a1,1,0,0,1,0,2Z" transform="translate(-22.59 -17.39)" style="fill:#fff"/></g><path d="M423.19,158H378.25a4.82,4.82,0,0,0-4.46,3.66l-1.49,4.94a4.82,4.82,0,0,1-4.46,3.66H303.49c-2.61,0-4.72,2.44-4.72,5.45h0v72.85c0,3,2.11,5.45,4.72,5.45h119.7a5.26,5.26,0,0,0,5-5.45V163.47A5.26,5.26,0,0,0,423.19,158Z" transform="translate(-22.59 -17.39)" style="fill:#3e479b"/><path d="M377.27,171l1.59-4.94a5.08,5.08,0,0,1,4.76-3.66h39.57a5.26,5.26,0,0,1,5,5.45V253a5.26,5.26,0,0,1-5,5.45H303.81a5.26,5.26,0,0,1-5-5.45V180.15a5.26,5.26,0,0,1,5-5.45h68.7A5.08,5.08,0,0,0,377.27,171Z" transform="translate(-22.59 -17.39)" style="fill:#6d6cd4"/><path d="M380.2,176.06l1.5-4.66a4.79,4.79,0,0,1,4.49-3.45h37.3a5,5,0,0,1,4.75,5.13v80.22a5,5,0,0,1-4.75,5.13H311a5,5,0,0,1-4.75-5.13V184.65a5,5,0,0,1,4.75-5.13h64.75A4.79,4.79,0,0,0,380.2,176.06Z" transform="translate(-22.59 -17.39)" style="fill:#fff;opacity:0.12"/><path d="M414.59,252.31H385.07a1,1,0,0,1,0-2h29.53a3.46,3.46,0,0,0,3.46-3.46V223.43a1,1,0,0,1,2,0v23.43A5.46,5.46,0,0,1,414.59,252.31Z" transform="translate(-22.59 -17.39)" style="fill:#fff"/><path d="M70.63,240.87h45.24c2,0,3.82,1.65,4.49,4.11l1.5,5.56c.66,2.46,2.47,4.11,4.49,4.11H191.1c2.62,0,4.75,2.74,4.75,6.13h0v82c0,3.38-2.13,6.13-4.75,6.13H70.63c-2.8,0-5.07-2.74-5.07-6.13V247C65.55,243.62,67.83,240.87,70.63,240.87Z" transform="translate(-22.59 -17.39)" style="fill:#f28393"/><path d="M116.84,255.53l-1.6-5.56a5.24,5.24,0,0,0-4.79-4.11H70.63c-2.8,0-5.07,2.74-5.07,6.13v95.74c0,3.38,2.27,6.13,5.07,6.13H190.78c2.8,0,5.07-2.74,5.07-6.13v-82c0-3.38-2.27-6.13-5.07-6.13H121.64A5.24,5.24,0,0,1,116.84,255.53Z" transform="translate(-22.59 -17.39)" style="fill:#fff;opacity:0.12"/><path d="M113.9,261.17l-1.51-5.24a4.94,4.94,0,0,0-4.52-3.88H70.34c-2.64,0-4.78,2.59-4.78,5.78v90.24c0,3.19,2.14,5.78,4.78,5.78H183.59c2.64,0,4.78-2.59,4.78-5.78V270.83c0-3.19-2.14-5.78-4.78-5.78H118.42A4.94,4.94,0,0,1,113.9,261.17Z" transform="translate(-22.59 -17.39)" style="fill:#fff;opacity:0.12"/><path d="M74.8,276.05a1,1,0,0,1-.89-1V261.17A3.25,3.25,0,0,1,77,257.76H95.6a1,1,0,0,1,0,2H77a1.34,1.34,0,0,0-1.26,1.41v13.88A1,1,0,0,1,74.8,276.05Z" transform="translate(-22.59 -17.39)" style="fill:#fff"/><rect x="127.24" y="103.2" width="205.79" height="77.28" rx="38.64" ry="38.64" style="fill:#c5d9ff"/><circle cx="230.13" cy="109.11" r="54.34" style="fill:#599af2"/><rect x="127.24" y="91.82" width="205.79" height="77.28" rx="38.64" ry="38.64" style="fill:#599af2"/><circle cx="230.13" cy="97.73" r="54.34" style="fill:#599af2"/><g style="opacity:0.35000000000000003"><rect x="127.24" y="91.82" width="205.79" height="77.28" rx="38.64" ry="38.64" style="fill:#ecf1f7"/><circle cx="230.13" cy="97.73" r="54.34" style="fill:#ecf1f7"/></g><path d="M240,123.21a2.5,2.5,0,0,1-1.75-4.28l14.58-14.34,14.35,14.35a2.5,2.5,0,0,1-3.54,3.54l-10.85-10.85-11,10.86A2.49,2.49,0,0,1,240,123.21Z" transform="translate(-22.59 -17.39)" style="fill:#fff"/><path d="M252.73,143.09a2.5,2.5,0,0,1-2.5-2.5V108.11a2.5,2.5,0,1,1,5,0v32.48A2.5,2.5,0,0,1,252.73,143.09Z" transform="translate(-22.59 -17.39)" style="fill:#fff"/><path d="M276.36,158.52H228.72a6.2,6.2,0,0,1-6.19-6.19V135a2.5,2.5,0,1,1,5,0v17.31a1.19,1.19,0,0,0,1.19,1.19h47.63a1.57,1.57,0,0,0,1.57-1.57V135a2.5,2.5,0,1,1,5,0V152A6.57,6.57,0,0,1,276.36,158.52Z" transform="translate(-22.59 -17.39)" style="fill:#fff"/><path d="M328.32,323.93,192,369a6.36,6.36,0,0,1-8-4l-45-136.32a6.36,6.36,0,0,1,4-8l136.32-45a6.36,6.36,0,0,1,8,4l45,136.32A6.36,6.36,0,0,1,328.32,323.93Z" transform="translate(-22.59 -17.39)" style="fill:#4c65ba;opacity:0.36"/><rect x="147.48" y="189.07" width="156.29" height="156.29" rx="6.36" ry="6.36" transform="translate(-95.03 66.88) rotate(-18.28)" style="fill:#fff"/><rect x="160.71" y="202.41" width="129.67" height="129.67" transform="translate(-95.05 66.85) rotate(-18.28)" style="fill:#c5d9ff"/><path d="M183.27,350.18l-9.21-27.87,13.47-32.47A9.32,9.32,0,0,1,199,284.49l24.94,7.75a3.33,3.33,0,0,0,3.85-1.47l20.76-34.55A17.25,17.25,0,0,1,270,249.27l22.87,9.84.21.64,16.13,48.82-1.42.47Zm-6-27.76,7.92,24,120.27-39.74-15-45.33L268.85,252a14.24,14.24,0,0,0-17.77,5.73l-20.76,34.55A6.32,6.32,0,0,1,223,295.1l-24.94-7.75A6.33,6.33,0,0,0,190.3,291Z" transform="translate(-22.59 -17.39)" style="fill:#fff;opacity:0.47000000000000003"/><path d="M224.38,254.18a16,16,0,1,1,5-.81A16,16,0,0,1,224.38,254.18Zm0-28.92a13,13,0,1,0,12.31,8.89A12.9,12.9,0,0,0,224.36,225.26Z" transform="translate(-22.59 -17.39)" style="fill:#fff;opacity:0.47000000000000003"/><rect x="233.98" y="211.94" width="119.14" height="119.14" rx="6.36" ry="6.36" style="fill:#4c65ba;opacity:0.36"/><rect x="227.94" y="205.9" width="119.14" height="119.14" rx="6.36" ry="6.36" style="fill:#fff"/><rect x="238.02" y="216.04" width="98.85" height="98.85" style="fill:#f7a9b4;opacity:0.39"/><path d="M361.09,333.15H259.25V310.28l17.6-20.38a7.47,7.47,0,0,1,10-1.2l16.2,11.57a2.19,2.19,0,0,0,2.7-.12l23.29-20a13.51,13.51,0,0,1,17.71.13l14.32,12.69Zm-98.85-3h95.85V294.27l-13.31-11.8a10.5,10.5,0,0,0-13.77-.1l-23.29,20a5.18,5.18,0,0,1-6.4.29l-16.2-11.57a4.48,4.48,0,0,0-6,.72l-16.87,19.54Z" transform="translate(-22.59 -17.39)" style="fill:#fff;opacity:0.47000000000000003"/><path d="M316.13,274.09a12.52,12.52,0,1,1,12.52-12.52A12.53,12.53,0,0,1,316.13,274.09Zm0-22a9.52,9.52,0,1,0,9.52,9.52A9.53,9.53,0,0,0,316.13,252.05Z" transform="translate(-22.59 -17.39)" style="fill:#fff;opacity:0.47000000000000003"/><rect x="211.32" y="295.44" width="76.96" height="76.96" rx="6.36" ry="6.36" transform="translate(-123.88 91.48) rotate(-20.54)" style="fill:#4c65ba;opacity:0.36"/><rect x="206.29" y="293.15" width="76.96" height="76.96" rx="6.36" ry="6.36" transform="translate(-123.39 89.57) rotate(-20.54)" style="fill:#fff"/><rect x="212.81" y="299.72" width="63.85" height="63.85" transform="translate(-123.4 89.56) rotate(-20.54)" style="fill:#599af2"/><path d="M225.1,374.26l-5.44-14.52,6.1-16.5a5.35,5.35,0,0,1,6.43-3.33l12.42,3.33a.88.88,0,0,0,1-.43l9.55-17.41a9.26,9.26,0,0,1,11.4-4.18l11.76,4.52,9.39,25.05Zm-2.24-14.52,4,10.66,57-21.35-7.86-21-10.5-4a6.25,6.25,0,0,0-7.69,2.82l-9.55,17.4a3.87,3.87,0,0,1-4.41,1.88l-12.42-3.33a2.36,2.36,0,0,0-2.84,1.47Z" transform="translate(-22.59 -17.39)" style="fill:#fff;opacity:0.47000000000000003"/><path d="M243.6,326a8.62,8.62,0,1,1,8.06-11.64h0A8.62,8.62,0,0,1,243.6,326Zm0-14.24a5.62,5.62,0,1,0,5.27,3.65A5.6,5.6,0,0,0,243.59,311.77Z" transform="translate(-22.59 -17.39)" style="fill:#fff;opacity:0.47000000000000003"/></svg>